Coordinates
version=1
nRows=14
nColumns=36
inDegrees=yes

Units are S.I. units (second, meters, Newtons, ...)
If the header above contains a line with 'inDegrees', this indicates whether rotational values are in degrees (yes) or radians (no).

endheader
time	pelvis_tilt	pelvis_list	pelvis_rotation	pelvis_tx	pelvis_ty	pelvis_tz	hip_flexion_r	hip_adduction_r	hip_rotation_r	knee_angle_r	knee_angle_r_beta	ankle_angle_r	subtalar_angle_r	mtp_angle_r	hip_flexion_l	hip_adduction_l	hip_rotation_l	knee_angle_l	knee_angle_l_beta	ankle_angle_l	subtalar_angle_l	mtp_angle_l	lumbar_extension	lumbar_bending	lumbar_rotation	arm_flex_r	arm_add_r	arm_rot_r	elbow_flex_r	pro_sup_r	arm_flex_l	arm_add_l	arm_rot_l	elbow_flex_l	pro_sup_l
      7.70000000	     -6.84017677	      4.75465030	     10.94160040	      0.89252841	      0.98620999	      0.17556211	     16.19534969	     -0.85397260	      0.88926156	     20.74996348	      0.36215518	     19.53035574	     -1.96656824	     -7.49999987	     39.81132064	     -1.10082512	     -2.30951326	     39.13015816	      0.68295010	      3.33413699	    -10.88392866	     -7.49999987	    -12.43336268	      0.42484624	      4.22304933	     48.25234998	    -10.84683979	     65.87456421	    126.49820546	     92.57810497	     48.53661685	     -2.44487646	     69.64432642	    124.74321319	    102.67664757
      7.71666670	     -6.91213902	      4.49720033	     11.04096174	      0.89256987	      0.98412180	      0.17541811	     16.88667181	     -0.59120810	      0.71060360	     21.76284749	      0.37983334	     20.03150909	     -2.20618066	     -7.49999987	     40.70236608	     -1.25100740	     -1.91106154	     38.70407003	      0.67551346	      3.41690390	    -10.59446583	     -7.49999987	    -13.14271870	      0.42440185	      4.29048776	     49.23216192	    -11.32985000	     65.31178812	    126.26646379	     92.52799576	     49.54782271	     -2.78900323	     68.75096543	    123.87861976	    102.59980792
      7.73333330	     -7.04460688	      4.14679115	     11.16854156	      0.89134281	      0.98119101	      0.17530189	     17.80961514	     -0.29702294	      0.39437549	     23.04553399	      0.40222045	     20.40007973	     -2.39636536	     -7.49999987	     41.70872323	     -1.56338097	     -1.70146758	     38.11530993	      0.66523765	      3.37244740	    -10.18793462	     -7.49999987	    -13.55206082	      0.53545876	      4.60579516	     49.72522181	    -11.83135584	     65.75085019	    126.62274463	     92.56531596	     49.74789813	     -2.68590846	     67.94732396	    122.62178002	    102.40680142
      7.75000000	     -7.53375984	      3.56054304	     11.40204316	      0.88518786	      0.97012052	      0.17811645	     19.78170129	      0.23104057	      0.14749494	     25.25286166	      0.44074558	     21.03774843	     -3.15991515	     -7.49999987	     43.72992896	     -2.06316916	     -1.17563762	     38.50794424	      0.67209042	      3.41354832	    -10.17709080	     -7.49999987	    -13.78727442	      0.81052980	      4.64492394	     50.99823222	    -11.44678107	     65.19161789	    126.48949862	     91.05186390	     50.98528595	     -2.78013383	     67.48983212	    122.42068386	    100.98808252
      7.76666670	     -7.90615985	      2.90112969	     11.38907536	      0.87242679	      0.96915198	      0.18463371	     22.10581244	      0.86872802	     -0.20867971	     27.84176927	      0.48593054	     21.67381865	     -3.62697941	     -7.49999987	     45.86949915	     -2.78633014	     -0.56726177	     39.02762075	      0.68116048	      3.48959895	    -10.01107568	     -7.49999987	    -15.02577998	      1.30363600	      4.98341988	     53.29026432	    -11.68657740	     64.26803085	    125.59556537	     90.98366221	     52.89853058	     -3.19622009	     67.49034523	    122.38629176	    100.84480956
      7.78333330	     -8.95899438	      2.10945239	     11.27895254	      0.87261561	      0.95709439	      0.18442196	     25.59472498	      1.56518349	     -0.44593677	     31.38330658	      0.54774203	     22.91462291	     -3.78603181	     -7.49999987	     48.82501997	     -3.55848600	      0.13898352	     39.96309228	      0.69748754	      3.79835283	     -9.98860922	     -7.49999987	    -14.75577748	      1.79344545	      5.21408546	     54.95328353	    -11.56113046	     63.69706229	    124.69566739	     89.99690173	     54.63013858	     -3.33625885	     67.46993331	    122.42729477	     99.52717804
      7.80000000	     -9.35377418	      1.57038194	     11.02544053	      0.86590361	      0.95080094	      0.18804486	     28.27269287	      2.19904533	     -0.64433599	     34.65252133	      0.60480059	     24.15599687	     -4.16061261	     -7.49999987	     50.83962041	     -4.28913967	      0.62458783	     40.44888823	      0.70596628	      3.74772849	    -10.09214105	     -7.49999987	    -15.37270921	      2.13975333	      5.67941514	     56.41298174	    -11.69983464	     63.07371037	    123.78985719	     88.59488960	     56.13690708	     -3.42781271	     66.95027754	    121.92830752	     98.50592550
      7.81666670	    -10.46863591	      0.87767936	     10.79510991	      0.86589011	      0.94672905	      0.19321579	     31.37010088	      2.84253749	     -1.03787038	     37.44400703	      0.65352121	     25.33360413	     -3.62604287	     -7.49999987	     53.56001693	     -5.05786377	      1.18597016	     40.83951785	      0.71278405	      3.40059371	    -10.51051294	     -7.49999987	    -15.13023297	      2.30263414	      6.17303862	     57.54784088	    -11.85660087	     63.18119326	    123.14659876	     88.57765391	     57.33318016	     -3.89618636	     67.97885445	    121.90856415	     98.83026472
      7.83333330	    -11.40175735	      0.19761651	     10.76220804	      0.85942327	      0.94140919	      0.19611910	     34.04189233	      3.50747643	     -1.34674831	     39.76173214	      0.69397314	     25.96563691	     -3.71112061	     -7.49999987	     56.11798685	     -5.70973596	      1.73326669	     41.14768827	      0.71816264	      2.61920422	    -11.24510487	     -7.49999987	    -15.34175967	      2.52512169	      6.66437169	     58.54344484	    -11.94854344	     63.51804475	    123.30482398	     87.94510465	     58.38243260	     -3.88477464	     69.43617231	    122.45421439	     98.74143247
      7.85000000	    -12.27181526	     -0.15696617	     10.60636508	      0.86045557	      0.93722028	      0.19586716	     36.03341021	      3.85557516	     -1.44570189	     41.45969786	      0.72360823	     26.56258581	     -3.48906493	     -7.49999987	     57.85758670	     -6.15238217	      1.98764241	     40.91132553	      0.71403733	      1.75887019	    -11.74037065	     -7.49999987	    -15.50224112	      2.49739803	      6.89203574	     58.93868212	    -12.30290008	     63.53725600	    123.32341929	     87.74714871	     58.97315187	     -3.73405746	     70.47155324	    122.45758655	     98.92411294
      7.86666670	    -13.13407935	     -0.39985541	     10.46657082	      0.86061361	      0.93047919	      0.19593641	     37.99736427	      4.01336255	     -1.64168582	     43.26700675	      0.75515173	     27.08982530	     -3.24817680	     -7.49999987	     59.57623914	     -6.49824366	      2.26052697	     40.88592664	      0.71359404	      0.96265121	    -12.30247808	     -7.49999987	    -15.51455382	      2.35914420	      7.01115310	     58.98383340	    -12.93700889	     64.12021472	    123.34075344	     87.61509827	     59.26050382	     -3.85398198	     71.20252334	    122.02731640	     98.98587806
      7.88333330	    -14.32620913	     -0.84882213	     10.39994973	      0.84875409	      0.92440600	      0.19586782	     40.62696036	      4.12257902	     -2.04307733	     45.17145072	      0.78839054	     27.22435962	     -3.04376207	     -7.49999987	     61.99805497	     -6.74280269	      2.73204027	     40.77068332	      0.71158266	      0.19329427	    -12.57425233	     -7.49999987	    -15.81624919	      2.55129891	      7.63191299	     60.37847466	    -13.84841190	     64.48644452	    123.83791474	     87.40558579	     60.15532889	     -3.36737852	     71.94367111	    121.95974415	     98.98755610
      7.90000000	    -15.40092340	     -1.35179899	     10.40781418	      0.84891086	      0.91435413	      0.19555398	     43.25090959	      4.28416458	     -2.43819361	     47.24461223	      0.82457404	     27.69783331	     -2.85244557	     -7.49999987	     64.41007219	     -7.02760801	      3.20224850	     41.13971678	      0.71802351	     -0.41055893	    -12.97278960	     -7.49999987	    -15.81561388	      2.75695137	      8.29007769	     61.30977409	    -14.64178140	     64.65745961	    125.02537789	     86.59657219	     61.02530763	     -2.40835390	     72.84624321	    121.63836824	     98.71812409
      7.91666670	    -16.31936562	     -1.68305761	     10.15200585	      0.84948823	      0.90487190	      0.19560958	     45.45140488	      4.38008367	     -2.76865488	     49.21490761	      0.85896218	     28.56824660	     -2.31356018	     -7.49999987	     66.42262308	     -7.35546971	      3.57018948	     41.55375642	      0.72524987	     -0.93614144	    -13.47634922	     -7.49999987	    -15.65126108	      2.92097916	      8.28715881	     61.87760363	    -14.61199349	     64.90317423	    125.46839792	     86.39387058	     61.67798448	     -2.24334367	     73.23334210	    122.12614827	     98.59049953
